<?xml version="1.0" encoding="UTF-8" standalone="no"?>
<!-- Created with Inkscape (http://www.inkscape.org/) -->

<svg
   xmlns:ns0="http://www.iki.fi/pav/software/textext/"
   xmlns:dc="http://purl.org/dc/elements/1.1/"
   xmlns:cc="http://creativecommons.org/ns#"
   xmlns:rdf="http://www.w3.org/1999/02/22-rdf-syntax-ns#"
   xmlns:svg="http://www.w3.org/2000/svg"
   xmlns="http://www.w3.org/2000/svg"
   xmlns:sodipodi="http://sodipodi.sourceforge.net/DTD/sodipodi-0.dtd"
   xmlns:inkscape="http://www.inkscape.org/namespaces/inkscape"
   width="20"
   height="20"
   id="svg2"
   sodipodi:version="0.32"
   inkscape:version="0.47pre0 r21549"
   version="1.0"
   sodipodi:docname="icon_16.svg"
   inkscape:output_extension="org.inkscape.output.svg.inkscape">
  <sodipodi:namedview
     id="base"
     pagecolor="#ffffff"
     bordercolor="#666666"
     borderopacity="1.0"
     gridtolerance="10000"
     guidetolerance="10000"
     objecttolerance="10000"
     inkscape:pageopacity="0.0"
     inkscape:pageshadow="2"
     inkscape:zoom="7.9999997"
     inkscape:cx="14.638208"
     inkscape:cy="7.5352048"
     inkscape:document-units="px"
     inkscape:current-layer="layer1"
     inkscape:guide-bbox="false"
     inkscape:grid-bbox="false"
     inkscape:grid-points="true"
     inkscape:guide-points="true"
     inkscape:object-paths="false"
     width="800px"
     height="600px"
     showgrid="true"
     inkscape:window-width="1270"
     inkscape:window-height="995"
     inkscape:window-x="0"
     inkscape:window-y="0"
     borderlayer="true"
     inkscape:object-points="false"
     inkscape:object-nodes="true"
     inkscape:window-maximized="0">
    <inkscape:grid
       type="xygrid"
       id="grid2386"
       visible="true"
       enabled="true"
       color="#0000ff"
       opacity="0.05882353"
       empcolor="#0000ff"
       empopacity="0.12156863" />
  </sodipodi:namedview>
  <defs
     id="defs4" />
  <metadata
     id="metadata7">
    <rdf:RDF>
      <cc:Work
         rdf:about="">
        <dc:format>image/svg+xml</dc:format>
        <dc:type
           rdf:resource="http://purl.org/dc/dcmitype/StillImage" />
      </cc:Work>
    </rdf:RDF>
  </metadata>
  <g
     inkscape:label="Layer 1"
     id="layer1"
     inkscape:groupmode="layer">
    <rect
       style="opacity:1;fill:none;fill-opacity:1;fill-rule:nonzero;stroke:#000000;stroke-width:2;stroke-linecap:round;stroke-linejoin:miter;stroke-miterlimit:4;stroke-dasharray:none;stroke-dashoffset:0;stroke-opacity:1"
       id="rect2384"
       width="16"
       height="16"
       x="2"
       y="2" />
    <g
       style="font-style:normal;font-variant:normal;font-weight:normal;font-stretch:normal;letter-spacing:normal;word-spacing:normal;text-anchor:start;fill:none;stroke:#000000;stroke-linecap:butt;stroke-linejoin:miter;stroke-miterlimit:10.43299961;stroke-opacity:1;stroke-dasharray:none;stroke-dashoffset:0"
       ns0:page_width=""
       ns0:preamble=""
       ns0:text="\\(\\Sigma\\)\n"
       word-spacing="normal"
       letter-spacing="normal"
       font-size-adjust="none"
       font-stretch="normal"
       font-weight="normal"
       font-variant="normal"
       font-style="normal"
       fill-rule="even-odd"
       stroke-miterlimit="10.433"
       xml:space="preserve"
       transform="matrix(1.25,0,0,-1.25,-273.8,898.425)"
       id="content">
<path
   id="path2838"
   d="m 227.14,710.37 0,0 0.01,0.01 0,0 0,0.01 0.01,0 0,0.01 0.01,0 0,0 0,0.01 0,0 0.01,0.01 0.01,0.01 0,0 0,0.01 0.01,0.01 0,0 0.01,0.01 0,0 0,0.01 0,0.01 0.01,0 0,0 0,0.01 0,0 0,0.01 0,0 0.01,0 0,0.01 0,0 0,0 0,0.01 0,0 0,0 0,0 0,0.01 0,0 c 0,0.05 -0.04,0.1 -0.07,0.14 l -2.04,2.95 h 2.3 c 1.68,0 2.18,-0.36 2.39,-1.94 h 0.25 l -0.28,2.25 h -5.53 c -0.24,0 -0.26,0 -0.26,-0.23 l 2.48,-3.61 -2.37,-2.7 c -0.1,-0.11 -0.1,-0.13 -0.1,-0.16 0,-0.11 0.1,-0.11 0.25,-0.11 h 5.53 l 0.28,2.35 h -0.25 c -0.18,-1.66 -0.86,-1.93 -2.42,-1.93 h -2.75 z"
   style="fill:#000000;stroke-width:0" />
</g>  </g>
</svg>
