<?xml version="1.0" encoding="UTF-8" standalone="no"?>
<!-- Created with Inkscape (http://www.inkscape.org/) -->

<svg
   xmlns:textext="http://www.iki.fi/pav/software/textext/"
   xmlns:dc="http://purl.org/dc/elements/1.1/"
   xmlns:cc="http://creativecommons.org/ns#"
   xmlns:rdf="http://www.w3.org/1999/02/22-rdf-syntax-ns#"
   xmlns:svg="http://www.w3.org/2000/svg"
   xmlns="http://www.w3.org/2000/svg"
   xmlns:xlink="http://www.w3.org/1999/xlink"
   xmlns:sodipodi="http://sodipodi.sourceforge.net/DTD/sodipodi-0.dtd"
   xmlns:inkscape="http://www.inkscape.org/namespaces/inkscape"
   width="800"
   height="400"
   id="svg2"
   sodipodi:version="0.32"
   inkscape:version="0.46+devel"
   version="1.0"
   sodipodi:docname="formula.svg"
   inkscape:output_extension="org.inkscape.output.svg.inkscape">
  <sodipodi:namedview
     id="base"
     pagecolor="#ffffff"
     bordercolor="#666666"
     borderopacity="1.0"
     gridtolerance="10000"
     guidetolerance="10000"
     objecttolerance="10000"
     inkscape:pageopacity="0.0"
     inkscape:pageshadow="2"
     inkscape:zoom="1.4"
     inkscape:cx="442.59416"
     inkscape:cy="167.29381"
     inkscape:document-units="px"
     inkscape:current-layer="svg2"
     inkscape:guide-bbox="false"
     inkscape:grid-bbox="false"
     inkscape:grid-points="true"
     inkscape:guide-points="true"
     inkscape:object-paths="false"
     width="1600px"
     height="1200px"
     showgrid="true"
     inkscape:window-width="1270"
     inkscape:window-height="995"
     inkscape:window-x="1280"
     inkscape:window-y="49"
     borderlayer="true"
     inkscape:object-nodes="true">
    <inkscape:grid
       type="xygrid"
       id="grid2430"
       visible="true"
       enabled="true"
       empspacing="5" />
  </sodipodi:namedview>
  <defs
     id="defs4">
    <marker
       style="overflow:visible"
       id="TriangleInM"
       refX="0"
       refY="0"
       orient="auto"
       inkscape:stockid="TriangleInM">
      <path
         transform="scale(-0.4,-0.4)"
         style="fill-rule:evenodd;stroke:#000000;stroke-width:1pt;marker-start:none"
         d="m 5.77,0 -8.65,5 0,-10 8.65,5 z"
         id="path4557" />
    </marker>
    <path
       sodipodi:open="true"
       transform="translate(110,-80)"
       sodipodi:end="4.712389"
       sodipodi:start="2.6179939"
       d="M -49.282033,280 A 80,80 0 0 1 20.000002,160"
       sodipodi:ry="80"
       sodipodi:rx="80"
       sodipodi:cy="240"
       sodipodi:cx="20"
       id="path6053-3"
       style="fill:none;stroke:none;stroke-width:4;marker-start:none;marker-end:none"
       sodipodi:type="arc" />
  </defs>
  <metadata
     id="metadata7">
    <rdf:RDF>
      <cc:Work
         rdf:about="">
        <dc:format>image/svg+xml</dc:format>
        <dc:type
           rdf:resource="http://purl.org/dc/dcmitype/StillImage" />
      </cc:Work>
    </rdf:RDF>
  </metadata>
  <g
     inkscape:label="Layer 1"
     id="layer1"
     inkscape:groupmode="layer" />
  <path
     sodipodi:type="arc"
     style="fill:none;stroke:#000000;stroke-width:1;stroke-linecap:round;stroke-linejoin:round;stroke-miterlimit:4;stroke-opacity:1;stroke-dasharray:none;stroke-dashoffset:0"
     id="path2230"
     sodipodi:cx="140"
     sodipodi:cy="90"
     sodipodi:rx="0"
     sodipodi:ry="5"
     d="m 140,87.133098 a 0,5 0 0 1 0,2.109599 L 140,90 z"
     sodipodi:start="3.7522187"
     sodipodi:end="6.1311396" />
  <text
     xml:space="preserve"
     style="font-size:40px;font-style:normal;font-weight:normal;fill:#000000;fill-opacity:1;stroke:none;font-family:Bitstream Vera Sans"
     x="230"
     y="270.71429"
     id="text3911"><tspan
       sodipodi:role="line"
       id="tspan3913"
       x="230"
       y="270.71429" /></text>
  <text
     style="font-size:16px;font-style:normal;font-variant:normal;font-weight:normal;font-stretch:normal;text-align:start;line-height:125%;writing-mode:lr-tb;text-anchor:start;fill:#000000;fill-opacity:1;stroke:none;font-family:Bitstream Vera Sans"
     y="220"
     x="130"
     sodipodi:linespacing="125%"
     id="text7563"
     xml:space="preserve"><tspan
       id="tspan8716"
       sodipodi:role="line"
       y="220"
       x="130">RealArray a = new RealArray(new double[] { </tspan><tspan
       id="tspan8749"
       sodipodi:role="line"
       y="240"
       x="130">                1, 2, 3, //</tspan><tspan
       id="tspan8751"
       sodipodi:role="line"
       y="260"
       x="130">                4, 5, 6, //</tspan><tspan
       id="tspan8755"
       sodipodi:role="line"
       y="280"
       x="130">                7, 8, 9 }, 3, 3);</tspan><tspan
       id="tspan8757"
       sodipodi:role="line"
       y="300"
       x="130">RealArray b = new RealArray(new double[] { </tspan><tspan
       id="tspan8759"
       sodipodi:role="line"
       y="320"
       x="130">                0, 0, 1, //</tspan><tspan
       id="tspan8761"
       sodipodi:role="line"
       y="340"
       x="130">                0, 1, 0, //</tspan><tspan
       id="tspan8765"
       sodipodi:role="line"
       y="360"
       x="130">                1, 0, 0 }, 3, 3);</tspan><tspan
       sodipodi:role="line"
       id="tspan2263"
       y="380"
       x="130">System.out.printf(&quot;ab = \n%s\n&quot;, a.mMul(b));</tspan><tspan
       id="tspan8805"
       sodipodi:role="line"
       y="400"
       x="130" /></text>
  <g
     id="g8351"
     transform="translate(-30,10)">
    <path
       transform="translate(110,-80)"
       sodipodi:open="true"
       sodipodi:end="4.712389"
       sodipodi:start="1.5707963"
       d="M 20.000002,310 C -18.659931,310 -49.999999,278.65993 -50,240 c -10e-7,-38.65993 31.340066,-70 69.999998,-70 10e-7,0 2e-6,0 3e-6,0"
       sodipodi:ry="70"
       sodipodi:rx="70"
       sodipodi:cy="240"
       sodipodi:cx="20"
       id="path6053"
       style="fill:none;stroke:#000000;stroke-width:4;stroke-linecap:round;stroke-miterlimit:4;stroke-opacity:1;stroke-dasharray:none;marker-start:url(#TriangleInM);marker-end:none"
       sodipodi:type="arc" />
    <path
       sodipodi:open="true"
       transform="translate(110,-80)"
       sodipodi:end="4.712389"
       sodipodi:start="2.6179939"
       d="M -49.282033,280 C -71.373422,241.73659 -58.263409,192.80936 -19.999998,170.71797 -7.8384616,163.6965 5.9570686,160 20.000002,160"
       sodipodi:ry="80"
       sodipodi:rx="80"
       sodipodi:cy="240"
       sodipodi:cx="20"
       id="path2914"
       style="fill:none;stroke:none;stroke-width:4;marker-start:none;marker-end:none"
       sodipodi:type="arc" />
    <text
       sodipodi:linespacing="125%"
       id="text8337"
       style="font-size:16px;font-style:normal;font-variant:normal;font-weight:normal;font-stretch:normal;text-align:start;line-height:125%;writing-mode:lr-tb;text-anchor:start;fill:#000000;fill-opacity:1;stroke:none;font-family:Bitstream Vera Sans;-inkscape-font-specification:Bitstream Vera Sans"
       xml:space="preserve"><textPath
         id="textPath8347"
         xlink:href="#path6053-3"><tspan
   id="tspan8339">to code</tspan><tspan
   id="tspan8341" /></textPath></text>
  </g>
  <text
     style="font-size:16px;font-style:normal;font-variant:normal;font-weight:normal;font-stretch:normal;text-align:start;line-height:125%;writing-mode:lr-tb;text-anchor:start;fill:#000000;fill-opacity:1;stroke:none;font-family:Bitstream Vera Sans"
     y="260"
     x="610"
     sodipodi:linespacing="125%"
     id="text7563-0"
     xml:space="preserve"><tspan
       sodipodi:role="line"
       id="tspan2263-5"
       y="260"
       x="610">ab = </tspan><tspan
       id="tspan9597"
       sodipodi:role="line"
       y="280"
       x="610" /><tspan
       id="tspan9599"
       sodipodi:role="line"
       y="300"
       x="610">    3.00    2.00    1.00</tspan><tspan
       id="tspan9601"
       sodipodi:role="line"
       y="320"
       x="610">    6.00    5.00    4.00</tspan><tspan
       id="tspan9603"
       sodipodi:role="line"
       y="340"
       x="610">    9.00    8.00    7.00</tspan><tspan
       id="tspan9605"
       sodipodi:role="line"
       y="360"
       x="610" /><tspan
       id="tspan8805-5"
       sodipodi:role="line"
       y="380"
       x="610" /></text>
  <g
     style="font-style:normal;font-variant:normal;font-weight:normal;font-stretch:normal;letter-spacing:normal;word-spacing:normal;text-anchor:start;fill:none;stroke:#000000;stroke-linecap:butt;stroke-linejoin:miter;stroke-miterlimit:10.43299961;stroke-opacity:1;stroke-dasharray:none;stroke-dashoffset:0"
     textext:preamble="preamble.tex"
     textext:text="\\begin{align*}\nA &amp;= \\begin{bmatrix}\n1 &amp; 2 &amp; 3 \\\\\n4 &amp; 5 &amp; 6 \\\\\n7 &amp; 8 &amp; 9\n\\end{bmatrix} &amp;\nB &amp;= \\begin{bmatrix}\n0 &amp; 0 &amp; 1 \\\\\n0 &amp; 1 &amp; 0 \\\\\n1 &amp; 0 &amp; 0\n\\end{bmatrix} \\\\\nAB &amp;= \\begin{bmatrix}\n3 &amp; 2 &amp; 1 \\\\\n6 &amp; 5 &amp; 4 \\\\\n9 &amp; 8 &amp; 7\n\\end{bmatrix}\n\\end{align*}\n"
     word-spacing="normal"
     letter-spacing="normal"
     font-size-adjust="none"
     font-stretch="normal"
     font-weight="normal"
     font-variant="normal"
     font-style="normal"
     fill-rule="even-odd"
     stroke-miterlimit="10.433"
     xml:space="preserve"
     transform="matrix(2,0,0,-2,-449.82,1452.76)"
     id="content">
<path
   id="path9658"
   d="m 299.02,697.81 -0.03,-0.06 -0.04,-0.06 -0.04,-0.05 -0.04,-0.05 -0.03,-0.05 -0.04,-0.05 -0.04,-0.04 -0.03,-0.04 -0.04,-0.04 -0.04,-0.04 -0.04,-0.03 -0.03,-0.04 -0.04,-0.03 -0.04,-0.02 -0.04,-0.03 -0.03,-0.02 -0.04,-0.03 -0.04,-0.02 -0.04,-0.02 -0.04,-0.01 -0.04,-0.02 -0.03,-0.01 -0.04,-0.01 -0.04,-0.01 -0.04,-0.01 -0.04,-0.01 -0.04,-0.01 -0.04,-0.01 -0.08,-0.01 -0.08,0 c -0.12,-0.01 -0.21,-0.01 -0.21,-0.2 0,-0.06 0.05,-0.11 0.13,-0.11 0.27,0 0.58,0.03 0.86,0.03 0.32,0 0.67,-0.03 0.99,-0.03 0.06,0 0.19,0 0.19,0.19 0,0.11 -0.09,0.12 -0.16,0.12 -0.23,0.02 -0.47,0.1 -0.47,0.35 0,0.12 0.06,0.22 0.14,0.36 0.07,0.12 0.08,0.12 0.76,1.28 h 2.5 l -0.03,0.31 h -2.28 l 1.96,3.29 0.32,-3.29 0.03,-0.31 c 0.02,-0.21 0.16,-1.56 0.16,-1.67 0,-0.29 -0.52,-0.32 -0.72,-0.32 -0.14,0 -0.24,0 -0.24,-0.2 0,-0.11 0.12,-0.11 0.14,-0.11 0.41,0 0.84,0.03 1.25,0.03 0.25,0 0.87,-0.03 1.12,-0.03 0.06,0 0.18,0 0.18,0.2 0,0.11 -0.1,0.11 -0.23,0.11 -0.61,0 -0.61,0.07 -0.64,0.36 l -0.61,6.22 c -0.02,0.2 -0.02,0.24 -0.19,0.24 -0.16,0 -0.2,-0.07 -0.26,-0.17 z"
   style="fill:#000000;stroke-width:0" />
<path
   id="path9660"
   d="m 314.32,699.92 0.03,0.01 0.03,0 0.03,0 0.01,0 0.02,0 0.01,0 0.02,0 0.01,0 0.01,0.01 0.02,0 0.01,0 0.01,0.01 0.02,0 0.01,0 0.01,0.01 0.01,0.01 0.01,0 0.01,0.01 0.01,0.01 0.01,0.01 0.01,0.01 0,0 0.01,0.01 0,0.01 0,0 0.01,0.01 0,0.01 0,0 0,0.01 0,0.01 0.01,0 0,0.01 0,0.01 0,0.01 0,0.01 0,0.01 0,0 c 0,0.2 -0.19,0.2 -0.33,0.2 h -5.97 c -0.13,0 -0.32,0 -0.32,-0.2 0,-0.2 0.19,-0.2 0.33,-0.2 z"
   style="fill:#000000;stroke-width:0" />
<path
   id="path9662"
   d="m 314.33,697.99 0.02,0 0.01,0 0.03,0 0.02,0 0.02,0.01 0.01,0 0.02,0 0.01,0 0.01,0 0.02,0 0.01,0.01 0.01,0 0.02,0 0.01,0.01 0.01,0 0.01,0.01 0.01,0 0.01,0.01 0.01,0.01 0.01,0.01 0.01,0.01 0.01,0 0,0.01 0,0 0.01,0.01 0,0 0,0.01 0.01,0.01 0,0 0,0.01 0,0.01 0,0 0.01,0.01 0,0.01 0,0.01 0,0.01 0,0 0,0.01 0,0.01 c 0,0.2 -0.19,0.2 -0.34,0.2 h -5.95 c -0.14,0 -0.33,0 -0.33,-0.2 0,-0.2 0.19,-0.2 0.32,-0.2 z"
   style="fill:#000000;stroke-width:0" />
<polygon
   id="polygon9664"
   points="321.93,716.39 324.56,716.39 324.56,717.08 321.24,717.08 321.24,699.16 321.93,699.16 "
   style="fill:#000000;stroke-width:0" />
<polygon
   id="polygon9666"
   points="324.56,681.92 321.93,681.92 321.93,699.15 321.24,699.15 321.24,681.23 324.56,681.23 "
   style="fill:#000000;stroke-width:0" />
<path
   id="path9668"
   d="m 327.57,715.1 0,0.01 0,0.01 0,0.01 0,0.01 0,0.01 0,0.01 0,0.01 0,0.01 0,0 0,0.01 0,0.01 0,0.01 0,0.01 -0.01,0 0,0.01 0,0.01 0,0 0,0.01 0,0.01 0,0.01 -0.01,0.01 0,0.01 0,0.01 -0.01,0.01 0,0.01 -0.01,0 0,0.01 -0.01,0 -0.01,0.01 -0.01,0 0,0 -0.01,0 0,0 -0.01,0.01 0,0 -0.01,0 -0.01,0 0,0 -0.01,0 -0.01,0 0,0 -0.01,0 -0.01,0 -0.01,0 -0.01,0 0,0 -0.01,0 -0.01,0 -0.01,0 -0.01,0 -0.01,0 -0.01,0 c -0.62,-0.63 -1.5,-0.63 -1.82,-0.63 v -0.31 c 0.2,0 0.79,0 1.31,0.26 v -5.16 c 0,-0.36 -0.03,-0.48 -0.93,-0.48 h -0.32 v -0.31 c 0.35,0.03 1.22,0.03 1.62,0.03 0.4,0 1.26,0 1.61,-0.03 v 0.31 h -0.32 c -0.89,0 -0.92,0.11 -0.92,0.48 z"
   style="fill:#000000;stroke-width:0" />
<path
   id="path9670"
   d="m 344.05,710.45 h -0.25 c -0.05,-0.29 -0.12,-0.73 -0.22,-0.88 -0.07,-0.08 -0.72,-0.08 -0.94,-0.08 h -1.8 l 1.06,1.02 c 1.55,1.38 2.15,1.92 2.15,2.91 0,1.14 -0.9,1.93 -2.11,1.93 -1.13,0 -1.86,-0.91 -1.86,-1.8 0,-0.56 0.49,-0.56 0.52,-0.56 0.17,0 0.52,0.12 0.52,0.53 0,0.26 -0.18,0.52 -0.53,0.52 -0.08,0 -0.1,0 -0.13,-0.01 0.23,0.65 0.77,1.02 1.35,1.02 0.91,0 1.33,-0.81 1.33,-1.63 0,-0.8 -0.49,-1.58 -1.04,-2.2 l -1.92,-2.13 c -0.1,-0.11 -0.1,-0.13 -0.1,-0.37 h 3.69 z"
   style="fill:#000000;stroke-width:0" />
<path
   id="path9672"
   d="m 357.41,712.23 0.08,0.02 0.07,0.03 0.08,0.03 0.07,0.04 0.07,0.03 0.07,0.04 0.06,0.04 0.07,0.04 0.06,0.05 0.06,0.04 0.06,0.05 0.05,0.05 0.06,0.05 0.05,0.06 0.05,0.05 0.05,0.06 0.04,0.06 0.05,0.06 0.04,0.06 0.03,0.06 0.04,0.06 0.03,0.07 0.03,0.06 0.03,0.07 0.02,0.07 0.02,0.07 0.02,0.07 0.01,0.07 0.01,0.07 0.01,0.07 0.01,0.08 0,0.07 c 0,0.82 -0.88,1.37 -1.83,1.37 -1.01,0 -1.77,-0.59 -1.77,-1.35 0,-0.33 0.22,-0.52 0.51,-0.52 0.31,0 0.51,0.22 0.51,0.51 0,0.5 -0.47,0.5 -0.62,0.5 0.31,0.49 0.97,0.62 1.33,0.62 0.4,0 0.95,-0.22 0.95,-1.12 0,-0.12 -0.02,-0.7 -0.28,-1.14 -0.29,-0.47 -0.63,-0.5 -0.88,-0.51 -0.08,-0.01 -0.32,-0.03 -0.39,-0.03 -0.08,-0.01 -0.15,-0.02 -0.15,-0.12 0,-0.11 0.07,-0.11 0.24,-0.11 h 0.44 c 0.81,0 1.18,-0.68 1.18,-1.66 0,-1.35 -0.69,-1.64 -1.12,-1.64 -0.43,0 -1.18,0.17 -1.53,0.76 0.35,-0.05 0.66,0.17 0.66,0.55 0,0.35 -0.27,0.55 -0.56,0.55 -0.24,0 -0.56,-0.14 -0.56,-0.57 0,-0.91 0.93,-1.57 2.02,-1.57 1.21,0 2.12,0.91 2.12,1.92 0,0.82 -0.63,1.6 -1.67,1.81 z"
   style="fill:#000000;stroke-width:0" />
<path
   id="path9674"
   d="m 324.92,698.41 h 2.65 v -0.87 c 0,-0.36 -0.02,-0.47 -0.76,-0.47 h -0.21 v -0.3 c 0.41,0.02 0.93,0.02 1.35,0.02 0.41,0 0.94,0 1.35,-0.02 v 0.3 h -0.21 c -0.74,0 -0.76,0.11 -0.76,0.47 v 0.87 h 1 v 0.31 h -1 v 4.53 c 0,0.2 0,0.26 -0.16,0.26 -0.09,0 -0.12,0 -0.19,-0.12 l -3.06,-4.67 h 0.28 l 2.43,3.71 v -3.71 h -2.43 -0.28 z"
   style="fill:#000000;stroke-width:0" />
<path
   id="path9676"
   d="m 344.05,698.77 0,0.11 -0.01,0.11 -0.01,0.11 -0.02,0.1 -0.02,0.11 -0.02,0.1 -0.03,0.1 -0.03,0.1 -0.04,0.1 -0.04,0.09 -0.05,0.09 -0.04,0.09 -0.06,0.08 -0.05,0.09 -0.06,0.08 -0.06,0.07 -0.07,0.08 -0.07,0.06 -0.07,0.07 -0.07,0.06 -0.08,0.06 -0.08,0.05 -0.08,0.05 -0.08,0.04 -0.09,0.04 -0.09,0.04 -0.09,0.03 -0.09,0.02 -0.1,0.02 -0.09,0.02 -0.1,0.01 -0.1,0 c -0.48,0 -0.91,-0.16 -1.27,-0.51 v 1.94 c 0.2,-0.06 0.53,-0.13 0.85,-0.13 1.22,0 1.92,0.91 1.92,1.04 0,0.06 -0.03,0.11 -0.1,0.11 -0.01,0 -0.03,0 -0.08,-0.03 -0.2,-0.09 -0.68,-0.29 -1.35,-0.29 -0.4,0 -0.86,0.07 -1.33,0.28 -0.08,0.03 -0.1,0.03 -0.12,0.03 -0.1,0 -0.1,-0.08 -0.1,-0.24 v -2.95 c 0,-0.18 0,-0.26 0.14,-0.26 0.07,0 0.09,0.03 0.13,0.09 0.11,0.16 0.48,0.7 1.29,0.7 0.52,0 0.76,-0.46 0.84,-0.64 0.16,-0.37 0.18,-0.75 0.18,-1.25 0,-0.35 0,-0.95 -0.24,-1.37 -0.23,-0.39 -0.6,-0.64 -1.06,-0.64 -0.73,0 -1.3,0.52 -1.47,1.11 0.03,-0.01 0.06,-0.02 0.17,-0.02 0.33,0 0.5,0.25 0.5,0.49 0,0.24 -0.17,0.49 -0.5,0.49 -0.14,0 -0.48,-0.07 -0.48,-0.53 0,-0.86 0.68,-1.82 1.8,-1.82 1.16,0 2.17,0.95 2.17,2.22 z"
   style="fill:#000000;stroke-width:0" />
<path
   id="path9678"
   d="m 355.84,700.03 v 0.24 c 0,2.52 1.24,2.88 1.74,2.88 0.24,0 0.66,-0.06 0.88,-0.4 -0.15,0 -0.55,0 -0.55,-0.45 0,-0.31 0.24,-0.45 0.46,-0.45 0.16,0 0.46,0.09 0.46,0.47 0,0.6 -0.44,1.08 -1.27,1.08 -1.27,0 -2.62,-1.29 -2.62,-3.49 0,-2.66 1.16,-3.36 2.09,-3.36 1.1,0 2.05,0.93 2.05,2.25 0,1.26 -0.89,2.22 -2,2.22 l 0,-0.23 c 0.15,0 0.61,0 0.92,-0.62 0.18,-0.37 0.18,-0.87 0.18,-1.36 0,-0.48 0,-0.98 -0.17,-1.34 -0.3,-0.59 -0.75,-0.64 -0.98,-0.64 h 0 c -0.63,0 -0.93,0.59 -0.99,0.74 -0.18,0.47 -0.18,1.27 -0.18,1.45 0,0.77 0.32,1.77 1.22,1.77 l 0,0.23 c -0.67,0 -1.04,-0.51 -1.24,-0.99 z"
   style="fill:#000000;stroke-width:0" />
<path
   id="path9680"
   d="m 329.38,690.88 0.01,0.01 0.01,0.01 0,0.01 0.01,0.01 0.01,0.01 0,0.01 0.01,0 0,0.01 0.01,0.01 0,0.01 0,0.01 0.01,0.01 0,0 0,0.01 0.01,0.01 0,0.01 0,0.01 0,0.01 0,0.01 0,0.01 0.01,0.01 0,0.01 0,0.01 0,0.01 0,0.01 0,0.02 0,0.01 0,0.02 0,0.01 0,0.02 0,0.02 0,0.01 0,0.01 h -2.42 c -1.22,0 -1.24,0.12 -1.28,0.31 h -0.25 l -0.32,-2.05 h 0.24 c 0.03,0.16 0.12,0.79 0.25,0.91 0.07,0.06 0.85,0.06 0.98,0.06 h 2.06 c -0.11,-0.16 -0.89,-1.25 -1.11,-1.57 -0.9,-1.35 -1.23,-2.73 -1.23,-3.75 0,-0.1 0,-0.55 0.46,-0.55 0.46,0 0.46,0.45 0.46,0.55 v 0.51 c 0,0.55 0.03,1.09 0.11,1.63 0.04,0.23 0.18,1.09 0.62,1.7 z"
   style="fill:#000000;stroke-width:0" />
<path
   id="path9682"
   d="m 342.66,688.42 0.06,0.03 0.07,0.04 0.06,0.03 0.06,0.04 0.06,0.04 0.06,0.04 0.06,0.04 0.06,0.04 0.05,0.04 0.05,0.05 0.05,0.04 0.05,0.04 0.05,0.05 0.04,0.05 0.05,0.04 0.04,0.05 0.04,0.05 0.03,0.05 0.04,0.05 0.03,0.05 0.03,0.05 0.03,0.06 0.02,0.05 0.02,0.05 0.02,0.06 0.02,0.06 0.02,0.05 0.01,0.06 0.01,0.06 0.01,0.06 0,0.06 0,0.06 c 0,0.92 -0.88,1.49 -1.79,1.49 l -0.01,-0.25 c 0.73,0 1.36,-0.52 1.36,-1.24 0,-0.57 -0.38,-1.05 -0.98,-1.39 l -1.24,0.79 c -0.46,0.3 -0.5,0.64 -0.5,0.81 0,0.61 0.65,1.03 1.36,1.03 l 0.01,0.25 c -1,0 -1.8,-0.74 -1.8,-1.67 0,-0.18 0.02,-0.63 0.43,-1.1 0.11,-0.11 0.48,-0.36 0.73,-0.53 l 0.23,-0.15 c 0.28,-0.17 0.75,-0.47 1.23,-0.78 0.27,-0.19 0.74,-0.49 0.74,-1.1 0,-0.73 -0.74,-1.25 -1.56,-1.25 -0.86,0 -1.58,0.62 -1.58,1.44 0,0.58 0.32,1.22 1.17,1.69 h 0 l -0.23,0.15 c -0.58,-0.29 -1.43,-0.85 -1.43,-1.84 0,-1.05 1.01,-1.72 2.06,-1.72 1.12,0 2.07,0.83 2.07,1.89 0,0.36 -0.11,0.81 -0.49,1.23 -0.19,0.21 -0.35,0.31 -0.98,0.71 z"
   style="fill:#000000;stroke-width:0" />
<path
   id="path9684"
   d="m 358.18,687.98 v -0.32 c 0,-2.33 -1.04,-2.79 -1.61,-2.79 -0.17,0 -0.71,0.02 -0.98,0.36 0.44,0 0.52,0.29 0.52,0.46 0,0.31 -0.24,0.46 -0.46,0.46 -0.16,0 -0.46,-0.1 -0.46,-0.48 0,-0.67 0.54,-1.08 1.39,-1.08 1.28,0 2.5,1.36 2.5,3.5 0,2.68 -1.15,3.36 -2.03,3.36 -0.55,0 -1.04,-0.18 -1.47,-0.63 -0.41,-0.45 -0.64,-0.87 -0.64,-1.62 0,-1.24 0.88,-2.22 2,-2.22 l 0.01,0.23 c -0.16,0 -0.62,0 -0.93,0.63 -0.18,0.37 -0.18,0.87 -0.18,1.35 0,0.54 0,1.01 0.21,1.38 0.27,0.5 0.65,0.63 1,0.63 0.45,0 0.78,-0.34 0.95,-0.79 0.12,-0.32 0.16,-0.95 0.16,-1.41 0,-0.82 -0.34,-1.79 -1.21,-1.79 h 0 l -0.01,-0.23 c 0.6,0 1.01,0.42 1.24,1 z"
   style="fill:#000000;stroke-width:0" />
<polygon
   id="polygon9686"
   points="362.89,717.08 359.58,717.08 359.58,716.39 362.2,716.39 362.2,699.16 362.89,699.16 "
   style="fill:#000000;stroke-width:0" />
<polygon
   id="polygon9688"
   points="359.58,681.23 362.89,681.23 362.89,699.15 362.2,699.15 362.2,681.92 359.58,681.92 "
   style="fill:#000000;stroke-width:0" />
<path
   id="path9690"
   d="m 433.5,697.45 -0.01,-0.04 -0.01,-0.03 -0.01,-0.04 -0.01,-0.03 -0.01,-0.03 -0.01,-0.02 -0.01,-0.03 -0.01,-0.02 -0.01,-0.02 -0.01,-0.03 -0.01,-0.02 -0.02,-0.01 -0.01,-0.02 -0.02,-0.02 -0.02,-0.01 -0.02,-0.02 -0.02,-0.01 -0.03,-0.01 -0.02,-0.01 -0.03,-0.01 -0.04,-0.01 -0.01,0 -0.02,0 -0.02,-0.01 -0.02,0 -0.02,0 -0.02,-0.01 -0.02,0 -0.02,0 -0.03,0 -0.02,0 -0.03,-0.01 -0.02,0 -0.03,0 -0.03,0 -0.03,0 -0.03,0 -0.03,0 -0.03,0 -0.03,0 -0.04,0 -0.03,0 -0.04,0 c -0.17,0 -0.27,0 -0.27,-0.2 0,-0.11 0.09,-0.11 0.27,-0.11 h 3.56 c 1.57,0 2.75,1.17 2.75,2.15 0,0.72 -0.58,1.29 -1.55,1.4 1.04,0.19 2.08,0.93 2.08,1.88 0,0.73 -0.65,1.37 -1.85,1.37 l -0.14,-0.31 c 0.88,0 1.09,-0.58 1.09,-1.02 0,-0.88 -0.86,-1.83 -2.08,-1.83 H 435 l -0.06,-0.22 h 1.88 c 0.96,0 1.15,-0.73 1.15,-1.16 0,-0.99 -0.89,-1.95 -2.06,-1.95 h -1.36 c -0.14,0 -0.16,0 -0.22,0.01 -0.1,0.01 -0.13,0.02 -0.13,0.1 0,0.03 0,0.05 0.05,0.23 l 0.69,2.77 0.06,0.22 0.62,2.47 c 0.09,0.35 0.11,0.38 0.54,0.38 h 1.28 l 0.14,0.31 h -3.35 c -0.19,0 -0.28,0 -0.28,-0.2 0,-0.11 0.09,-0.11 0.27,-0.11 0.02,0 0.21,0 0.38,-0.02 0.18,-0.02 0.27,-0.03 0.27,-0.16 0,-0.04 -0.01,-0.07 -0.04,-0.19 z"
   style="fill:#000000;stroke-width:0" />
<path
   id="path9692"
   d="m 449.57,699.92 0.03,0.01 0.03,0 0.03,0 0.01,0 0.02,0 0.01,0 0.01,0 0.02,0 0.01,0.01 0.02,0 0.01,0 0.01,0.01 0.01,0 0.02,0 0.01,0.01 0.01,0.01 0.01,0 0.01,0.01 0.01,0.01 0.01,0.01 0.01,0.01 0,0 0,0.01 0.01,0.01 0,0 0,0.01 0.01,0.01 0,0 0,0.01 0,0.01 0,0 0,0.01 0.01,0.01 0,0.01 0,0.01 0,0.01 0,0 c 0,0.2 -0.19,0.2 -0.33,0.2 h -5.97 c -0.14,0 -0.33,0 -0.33,-0.2 0,-0.2 0.19,-0.2 0.34,-0.2 z"
   style="fill:#000000;stroke-width:0" />
<path
   id="path9694"
   d="m 449.58,697.99 0.03,0 0.02,0 0.03,0 0.02,0.01 0.01,0 0.01,0 0.02,0 0.01,0 0.01,0 0.02,0.01 0.01,0 0.01,0 0.02,0.01 0.01,0 0.01,0.01 0.01,0 0.01,0.01 0.01,0.01 0.01,0.01 0.01,0.01 0,0 0.01,0.01 0,0 0,0.01 0.01,0 0,0.01 0,0.01 0.01,0 0,0.01 0,0.01 0,0 0,0.01 0,0.01 0.01,0.01 0,0.01 0,0 0,0.01 0,0.01 c 0,0.2 -0.19,0.2 -0.34,0.2 h -5.95 c -0.15,0 -0.34,0 -0.34,-0.2 0,-0.2 0.19,-0.2 0.33,-0.2 z"
   style="fill:#000000;stroke-width:0" />
<polygon
   id="polygon9696"
   points="457.17,716.39 459.8,716.39 459.8,717.08 456.49,717.08 456.49,699.16 457.17,699.16 "
   style="fill:#000000;stroke-width:0" />
<polygon
   id="polygon9698"
   points="459.8,681.92 457.17,681.92 457.17,699.15 456.49,699.15 456.49,681.23 459.8,681.23 "
   style="fill:#000000;stroke-width:0" />
<path
   id="path9700"
   d="m 464.46,711.91 0,0.15 0,0.15 -0.01,0.15 0,0.14 -0.01,0.15 -0.01,0.15 -0.02,0.15 -0.02,0.15 -0.02,0.14 -0.03,0.15 -0.03,0.14 -0.04,0.15 -0.04,0.14 -0.05,0.14 -0.06,0.14 -0.03,0.07 -0.03,0.07 c -0.46,0.96 -1.27,1.11 -1.69,1.11 -0.6,0 -1.33,-0.25 -1.73,-1.18 -0.32,-0.69 -0.37,-1.46 -0.37,-2.26 0,-0.75 0.04,-1.65 0.44,-2.4 0.43,-0.81 1.16,-1.01 1.65,-1.01 v 0.22 c -0.39,0 -0.98,0.25 -1.16,1.2 -0.11,0.6 -0.11,1.52 -0.11,2.11 0,0.63 0,1.29 0.08,1.83 0.19,1.19 0.94,1.28 1.19,1.28 0.33,0 0.99,-0.18 1.17,-1.17 0.1,-0.56 0.1,-1.31 0.1,-1.94 0,-0.75 0,-1.43 -0.11,-2.06 -0.15,-0.95 -0.71,-1.25 -1.16,-1.25 h 0 v -0.22 c 0.54,0 1.29,0.21 1.73,1.16 0.32,0.68 0.37,1.46 0.37,2.25 z"
   style="fill:#000000;stroke-width:0" />
<path
   id="path9702"
   d="m 479.41,711.91 0,0.15 0,0.15 -0.01,0.15 -0.01,0.14 0,0.15 -0.02,0.15 -0.01,0.15 -0.02,0.15 -0.02,0.14 -0.03,0.15 -0.03,0.14 -0.04,0.15 -0.04,0.14 -0.05,0.14 -0.06,0.14 -0.03,0.07 -0.03,0.07 c -0.46,0.96 -1.28,1.11 -1.69,1.11 -0.6,0 -1.33,-0.25 -1.74,-1.18 -0.32,-0.69 -0.37,-1.46 -0.37,-2.26 0,-0.75 0.04,-1.65 0.45,-2.4 0.43,-0.81 1.16,-1.01 1.65,-1.01 v 0.22 c -0.39,0 -0.98,0.25 -1.16,1.2 -0.11,0.6 -0.11,1.52 -0.11,2.11 0,0.63 0,1.29 0.08,1.83 0.19,1.19 0.94,1.28 1.19,1.28 0.32,0 0.98,-0.18 1.17,-1.17 0.1,-0.56 0.1,-1.31 0.1,-1.94 0,-0.75 0,-1.43 -0.11,-2.06 -0.15,-0.95 -0.72,-1.25 -1.16,-1.25 h 0 v -0.22 c 0.53,0 1.29,0.21 1.73,1.16 0.32,0.68 0.37,1.46 0.37,2.25 z"
   style="fill:#000000;stroke-width:0" />
<path
   id="path9704"
   d="m 492.69,715.1 0,0.01 0,0.01 0,0.01 0,0.01 0,0.01 0,0.01 0,0.01 0,0.01 0,0 0,0.01 0,0.01 0,0.01 0,0.01 0,0 0,0.01 0,0.01 0,0 0,0.01 0,0.01 -0.01,0.01 0,0.01 0,0.01 -0.01,0.01 0,0.01 0,0.01 -0.01,0 -0.01,0.01 0,0 -0.01,0.01 -0.01,0 -0.01,0 0,0 -0.01,0 0,0.01 -0.01,0 0,0 -0.01,0 -0.01,0 0,0 -0.01,0 -0.01,0 0,0 -0.01,0 -0.01,0 -0.01,0 -0.01,0 -0.01,0 0,0 -0.01,0 -0.01,0 -0.01,0 -0.02,0 c -0.61,-0.63 -1.49,-0.63 -1.81,-0.63 v -0.31 c 0.2,0 0.79,0 1.31,0.26 v -5.16 c 0,-0.36 -0.03,-0.48 -0.93,-0.48 h -0.32 v -0.31 c 0.35,0.03 1.22,0.03 1.62,0.03 0.39,0 1.26,0 1.61,-0.03 v 0.31 h -0.32 c -0.9,0 -0.93,0.11 -0.93,0.48 z"
   style="fill:#000000;stroke-width:0" />
<path
   id="path9706"
   d="m 464.46,699.95 0,0.15 0,0.15 -0.01,0.15 0,0.15 -0.01,0.15 -0.01,0.15 -0.02,0.14 -0.02,0.15 -0.02,0.15 -0.03,0.14 -0.03,0.15 -0.04,0.14 -0.04,0.14 -0.05,0.14 -0.06,0.15 -0.03,0.06 -0.03,0.07 c -0.46,0.96 -1.27,1.12 -1.69,1.12 -0.6,0 -1.33,-0.26 -1.73,-1.18 -0.32,-0.69 -0.37,-1.47 -0.37,-2.27 0,-0.74 0.04,-1.64 0.44,-2.4 0.43,-0.81 1.16,-1 1.65,-1 v 0.22 c -0.39,0 -0.98,0.24 -1.16,1.2 -0.11,0.6 -0.11,1.51 -0.11,2.1 0,0.64 0,1.3 0.08,1.84 0.19,1.18 0.94,1.27 1.19,1.27 0.33,0 0.99,-0.18 1.17,-1.16 0.1,-0.56 0.1,-1.32 0.1,-1.95 0,-0.74 0,-1.42 -0.11,-2.06 -0.15,-0.95 -0.71,-1.24 -1.16,-1.24 h 0 v -0.22 c 0.54,0 1.29,0.21 1.73,1.15 0.32,0.69 0.37,1.47 0.37,2.25 z"
   style="fill:#000000;stroke-width:0" />
<path
   id="path9708"
   d="m 477.75,703.14 0,0.01 0,0.01 0,0.01 0,0.01 0,0.01 0,0.01 0,0.01 0,0.01 0,0.01 0,0.01 0,0.01 0,0 0,0.01 0,0.01 0,0.01 0,0 0,0.01 0,0.01 0,0.01 -0.01,0.01 0,0.01 0,0.01 -0.01,0.01 0,0 0,0.01 -0.01,0.01 -0.01,0 0,0.01 -0.01,0 -0.01,0 -0.01,0.01 0,0 -0.01,0 0,0 -0.01,0 0,0 -0.01,0 -0.01,0.01 0,0 -0.01,0 -0.01,0 0,0 -0.01,0 -0.01,0 -0.01,0 -0.01,0 -0.01,0 0,0 -0.01,0 -0.01,0 -0.01,0 -0.02,0 c -0.61,-0.64 -1.49,-0.64 -1.81,-0.64 v -0.31 c 0.2,0 0.79,0 1.31,0.26 v -5.16 c 0,-0.36 -0.03,-0.48 -0.93,-0.48 h -0.32 v -0.3 c 0.35,0.02 1.22,0.02 1.62,0.02 0.39,0 1.26,0 1.61,-0.02 v 0.3 h -0.32 c -0.9,0 -0.93,0.11 -0.93,0.48 z"
   style="fill:#000000;stroke-width:0" />
<path
   id="path9710"
   d="m 494.35,699.95 0,0.15 0,0.15 -0.01,0.15 -0.01,0.15 0,0.15 -0.02,0.15 -0.01,0.14 -0.02,0.15 -0.02,0.15 -0.03,0.14 -0.03,0.15 -0.04,0.14 -0.04,0.14 -0.05,0.14 -0.06,0.15 -0.03,0.06 -0.03,0.07 c -0.46,0.96 -1.28,1.12 -1.69,1.12 -0.6,0 -1.33,-0.26 -1.74,-1.18 -0.32,-0.69 -0.37,-1.47 -0.37,-2.27 0,-0.74 0.04,-1.64 0.45,-2.4 0.43,-0.81 1.16,-1 1.65,-1 v 0.22 c -0.39,0 -0.98,0.24 -1.16,1.2 -0.11,0.6 -0.11,1.51 -0.11,2.1 0,0.64 0,1.3 0.08,1.84 0.19,1.18 0.94,1.27 1.19,1.27 0.32,0 0.98,-0.18 1.17,-1.16 0.1,-0.56 0.1,-1.32 0.1,-1.95 0,-0.74 0,-1.42 -0.11,-2.06 -0.15,-0.95 -0.72,-1.24 -1.16,-1.24 h 0 v -0.22 c 0.53,0 1.29,0.21 1.73,1.15 0.32,0.69 0.37,1.47 0.37,2.25 z"
   style="fill:#000000;stroke-width:0" />
<path
   id="path9712"
   d="m 462.81,691.19 0,0.01 0,0.01 0,0.01 0,0.01 0,0.01 0,0.01 0,0.01 0,0.01 0,0 0,0.01 0,0.01 0,0.01 0,0.01 -0.01,0 0,0.01 0,0.01 0,0 0,0.01 0,0.01 0,0.01 -0.01,0.01 0,0.01 0,0.01 -0.01,0.01 0,0.01 -0.01,0 0,0.01 -0.01,0 -0.01,0.01 -0.01,0 0,0 -0.01,0 0,0 -0.01,0.01 0,0 -0.01,0 -0.01,0 0,0 -0.01,0 -0.01,0 0,0 -0.01,0 -0.01,0 -0.01,0 -0.01,0 0,0 -0.01,0 -0.01,0 -0.01,0 -0.01,0 -0.01,0 -0.01,0.01 c -0.62,-0.64 -1.5,-0.64 -1.82,-0.64 v -0.31 c 0.2,0 0.79,0 1.31,0.26 v -5.16 c 0,-0.36 -0.03,-0.48 -0.93,-0.48 h -0.32 v -0.31 c 0.35,0.03 1.22,0.03 1.62,0.03 0.4,0 1.26,0 1.61,-0.03 v 0.31 h -0.32 c -0.89,0 -0.92,0.11 -0.92,0.48 z"
   style="fill:#000000;stroke-width:0" />
<path
   id="path9714"
   d="m 479.41,688 0,0.15 0,0.15 -0.01,0.15 -0.01,0.14 0,0.15 -0.02,0.15 -0.01,0.15 -0.02,0.15 -0.02,0.14 -0.03,0.15 -0.03,0.14 -0.04,0.15 -0.04,0.14 -0.05,0.14 -0.06,0.14 -0.03,0.07 -0.03,0.07 c -0.46,0.96 -1.28,1.12 -1.69,1.12 -0.6,0 -1.33,-0.26 -1.74,-1.19 -0.32,-0.69 -0.37,-1.47 -0.37,-2.26 0,-0.75 0.04,-1.65 0.45,-2.4 0.43,-0.81 1.16,-1.01 1.65,-1.01 v 0.22 c -0.39,0 -0.98,0.25 -1.16,1.21 -0.11,0.59 -0.11,1.51 -0.11,2.1 0,0.64 0,1.29 0.08,1.83 0.19,1.19 0.94,1.28 1.19,1.28 0.32,0 0.98,-0.18 1.17,-1.17 0.1,-0.56 0.1,-1.32 0.1,-1.94 0,-0.75 0,-1.43 -0.11,-2.07 -0.15,-0.94 -0.72,-1.24 -1.16,-1.24 h 0 v -0.22 c 0.53,0 1.29,0.21 1.73,1.16 0.32,0.68 0.37,1.46 0.37,2.25 z"
   style="fill:#000000;stroke-width:0" />
<path
   id="path9716"
   d="m 494.35,688 0,0.15 0,0.15 -0.01,0.15 -0.01,0.14 0,0.15 -0.02,0.15 -0.01,0.15 -0.02,0.15 -0.02,0.14 -0.03,0.15 -0.03,0.14 -0.04,0.15 -0.04,0.14 -0.05,0.14 -0.06,0.14 -0.03,0.07 -0.03,0.07 c -0.46,0.96 -1.28,1.12 -1.69,1.12 -0.6,0 -1.33,-0.26 -1.74,-1.19 -0.32,-0.69 -0.37,-1.47 -0.37,-2.26 0,-0.75 0.04,-1.65 0.45,-2.4 0.43,-0.81 1.16,-1.01 1.65,-1.01 v 0.22 c -0.39,0 -0.98,0.25 -1.16,1.21 -0.11,0.59 -0.11,1.51 -0.11,2.1 0,0.64 0,1.29 0.08,1.83 0.19,1.19 0.94,1.28 1.19,1.28 0.32,0 0.98,-0.18 1.17,-1.17 0.1,-0.56 0.1,-1.32 0.1,-1.94 0,-0.75 0,-1.43 -0.11,-2.07 -0.15,-0.94 -0.72,-1.24 -1.16,-1.24 h 0 v -0.22 c 0.53,0 1.29,0.21 1.73,1.16 0.32,0.68 0.37,1.46 0.37,2.25 z"
   style="fill:#000000;stroke-width:0" />
<polygon
   id="polygon9718"
   points="498.14,717.08 494.82,717.08 494.82,716.39 497.45,716.39 497.45,699.16 498.14,699.16 "
   style="fill:#000000;stroke-width:0" />
<polygon
   id="polygon9720"
   points="494.82,681.23 498.14,681.23 498.14,699.15 497.45,699.15 497.45,681.92 494.82,681.92 "
   style="fill:#000000;stroke-width:0" />
<path
   id="path9722"
   d="m 290.97,657.96 -0.04,-0.06 -0.04,-0.06 -0.03,-0.06 -0.04,-0.05 -0.04,-0.05 -0.04,-0.04 -0.03,-0.05 -0.04,-0.04 -0.04,-0.04 -0.03,-0.04 -0.04,-0.03 -0.04,-0.03 -0.04,-0.03 -0.03,-0.03 -0.04,-0.03 -0.04,-0.02 -0.04,-0.02 -0.04,-0.02 -0.03,-0.02 -0.04,-0.02 -0.04,-0.01 -0.04,-0.02 -0.04,-0.01 -0.04,-0.01 -0.04,-0.01 -0.04,-0.01 -0.04,-0.01 -0.03,0 -0.09,-0.01 -0.08,-0.01 c -0.12,-0.01 -0.21,-0.01 -0.21,-0.2 0,-0.06 0.05,-0.11 0.13,-0.11 0.27,0 0.58,0.03 0.86,0.03 0.33,0 0.68,-0.03 1,-0.03 0.06,0 0.19,0 0.19,0.19 0,0.11 -0.09,0.12 -0.16,0.12 -0.23,0.02 -0.47,0.1 -0.47,0.35 0,0.12 0.06,0.23 0.14,0.37 0.07,0.12 0.08,0.12 0.76,1.27 h 2.5 l -0.03,0.31 h -2.29 l 1.97,3.29 0.32,-3.29 0.03,-0.31 c 0.01,-0.2 0.16,-1.56 0.16,-1.66 0,-0.3 -0.52,-0.33 -0.72,-0.33 -0.14,0 -0.24,0 -0.24,-0.2 0,-0.11 0.12,-0.11 0.14,-0.11 0.41,0 0.83,0.03 1.24,0.03 0.25,0 0.88,-0.03 1.13,-0.03 0.06,0 0.18,0 0.18,0.2 0,0.11 -0.1,0.11 -0.23,0.11 -0.62,0 -0.62,0.07 -0.65,0.36 l -0.61,6.23 c -0.02,0.2 -0.02,0.24 -0.19,0.24 -0.15,0 -0.2,-0.07 -0.26,-0.17 z"
   style="fill:#000000;stroke-width:0" />
<path
   id="path9724"
   d="m 298.25,657.59 -0.01,-0.04 -0.01,-0.03 -0.01,-0.03 -0.01,-0.03 -0.01,-0.03 0,-0.03 -0.01,-0.02 -0.01,-0.03 -0.02,-0.02 -0.01,-0.02 -0.01,-0.02 -0.01,-0.02 -0.02,-0.02 -0.02,-0.01 -0.02,-0.02 -0.02,-0.01 -0.02,-0.01 -0.02,-0.01 -0.03,-0.01 -0.03,-0.01 -0.03,-0.01 -0.02,-0.01 -0.02,0 -0.02,0 -0.02,0 -0.02,-0.01 -0.02,0 -0.02,0 -0.02,-0.01 -0.03,0 -0.02,0 -0.03,0 -0.02,0 -0.03,0 -0.03,0 -0.03,-0.01 -0.03,0 -0.03,0 -0.03,0 -0.03,0 -0.04,0 -0.03,0 -0.04,0 c -0.17,0 -0.27,0 -0.27,-0.2 0,-0.11 0.09,-0.11 0.27,-0.11 h 3.56 c 1.57,0 2.75,1.18 2.75,2.15 0,0.72 -0.58,1.3 -1.54,1.41 1.03,0.19 2.08,0.93 2.08,1.87 0,0.74 -0.66,1.38 -1.86,1.38 l -0.14,-0.31 c 0.88,0 1.09,-0.59 1.09,-1.03 0,-0.87 -0.86,-1.82 -2.07,-1.82 h -1.46 l -0.06,-0.22 h 1.89 c 0.95,0 1.14,-0.74 1.14,-1.17 0,-0.98 -0.88,-1.95 -2.06,-1.95 h -1.36 c -0.13,0 -0.15,0 -0.21,0.01 -0.1,0.01 -0.13,0.02 -0.13,0.1 0,0.03 0,0.05 0.05,0.23 l 0.68,2.78 0.06,0.22 0.62,2.47 c 0.09,0.35 0.11,0.38 0.54,0.38 h 1.28 l 0.14,0.31 h -3.34 c -0.19,0 -0.29,0 -0.29,-0.2 0,-0.11 0.09,-0.11 0.28,-0.11 0.02,0 0.2,0 0.38,-0.02 0.17,-0.02 0.26,-0.03 0.26,-0.16 0,-0.04 -0.01,-0.07 -0.04,-0.19 z"
   style="fill:#000000;stroke-width:0" />
<path
   id="path9726"
   d="m 314.32,660.07 0.03,0 0.03,0 0.03,0 0.01,0 0.02,0 0.01,0 0.02,0.01 0.01,0 0.01,0 0.02,0 0.01,0.01 0.01,0 0.02,0.01 0.01,0 0.01,0.01 0.01,0 0.01,0.01 0.01,0.01 0.01,0.01 0.01,0 0.01,0.01 0,0.01 0.01,0.01 0,0 0,0.01 0.01,0 0,0.01 0,0.01 0,0 0,0.01 0.01,0.01 0,0.01 0,0 0,0.01 0,0.01 0,0.01 0,0.01 c 0,0.2 -0.19,0.2 -0.33,0.2 h -5.97 c -0.13,0 -0.32,0 -0.32,-0.2 0,-0.2 0.19,-0.2 0.33,-0.2 z"
   style="fill:#000000;stroke-width:0" />
<path
   id="path9728"
   d="m 314.33,658.14 0.02,0 0.01,0 0.03,0 0.02,0 0.02,0 0.01,0 0.02,0 0.01,0 0.01,0.01 0.02,0 0.01,0 0.01,0 0.02,0.01 0.01,0 0.01,0.01 0.01,0 0.01,0.01 0.01,0.01 0.01,0 0.01,0.01 0.01,0.01 0.01,0.01 0,0 0,0.01 0.01,0 0,0.01 0,0 0.01,0.01 0,0.01 0,0 0,0.01 0,0.01 0.01,0.01 0,0 0,0.01 0,0.01 0,0.01 0,0.01 0,0.01 c 0,0.2 -0.19,0.2 -0.34,0.2 h -5.95 c -0.14,0 -0.33,0 -0.33,-0.2 0,-0.2 0.19,-0.2 0.32,-0.2 z"
   style="fill:#000000;stroke-width:0" />
<polygon
   id="polygon9730"
   points="321.93,676.54 324.56,676.54 324.56,677.23 321.24,677.23 321.24,659.3 321.93,659.3 "
   style="fill:#000000;stroke-width:0" />
<polygon
   id="polygon9732"
   points="324.56,642.07 321.93,642.07 321.93,659.3 321.24,659.3 321.24,641.38 324.56,641.38 "
   style="fill:#000000;stroke-width:0" />
<path
   id="path9734"
   d="m 327.53,672.37 0.07,0.03 0.08,0.03 0.07,0.03 0.07,0.03 0.07,0.04 0.07,0.04 0.07,0.04 0.06,0.04 0.06,0.04 0.06,0.05 0.06,0.05 0.06,0.05 0.05,0.05 0.05,0.05 0.05,0.06 0.05,0.05 0.05,0.06 0.04,0.06 0.04,0.06 0.04,0.07 0.03,0.06 0.03,0.06 0.03,0.07 0.03,0.07 0.02,0.06 0.02,0.07 0.02,0.07 0.01,0.07 0.02,0.08 0,0.07 0.01,0.07 0,0.07 c 0,0.82 -0.87,1.38 -1.83,1.38 -1.01,0 -1.76,-0.6 -1.76,-1.35 0,-0.33 0.21,-0.52 0.5,-0.52 0.31,0 0.51,0.22 0.51,0.51 0,0.49 -0.47,0.49 -0.62,0.49 0.31,0.49 0.97,0.62 1.33,0.62 0.41,0 0.96,-0.22 0.96,-1.11 0,-0.12 -0.03,-0.7 -0.28,-1.14 -0.3,-0.48 -0.64,-0.51 -0.89,-0.52 -0.08,-0.01 -0.32,-0.03 -0.39,-0.03 -0.08,-0.01 -0.15,-0.02 -0.15,-0.12 0,-0.11 0.07,-0.11 0.24,-0.11 h 0.44 c 0.82,0 1.18,-0.68 1.18,-1.65 0,-1.36 -0.68,-1.65 -1.12,-1.65 -0.43,0 -1.18,0.17 -1.53,0.76 0.35,-0.05 0.66,0.17 0.66,0.55 0,0.36 -0.27,0.56 -0.56,0.56 -0.23,0 -0.55,-0.14 -0.55,-0.58 0,-0.91 0.92,-1.56 2.01,-1.56 1.21,0 2.12,0.9 2.12,1.92 0,0.82 -0.63,1.59 -1.66,1.8 z"
   style="fill:#000000;stroke-width:0" />
<path
   id="path9736"
   d="m 344.05,670.6 h -0.25 c -0.05,-0.3 -0.12,-0.74 -0.22,-0.89 -0.07,-0.08 -0.72,-0.08 -0.94,-0.08 h -1.8 l 1.06,1.03 c 1.55,1.37 2.15,1.91 2.15,2.91 0,1.13 -0.9,1.93 -2.11,1.93 -1.13,0 -1.86,-0.92 -1.86,-1.8 0,-0.56 0.49,-0.56 0.52,-0.56 0.17,0 0.52,0.12 0.52,0.53 0,0.26 -0.18,0.51 -0.53,0.51 -0.08,0 -0.1,0 -0.13,-0.01 0.23,0.65 0.77,1.02 1.35,1.02 0.91,0 1.33,-0.81 1.33,-1.62 0,-0.8 -0.49,-1.59 -1.04,-2.2 l -1.92,-2.14 c -0.1,-0.11 -0.1,-0.13 -0.1,-0.37 h 3.69 z"
   style="fill:#000000;stroke-width:0" />
<path
   id="path9738"
   d="m 357.45,675.24 0,0.01 0,0.01 0,0.01 0,0.01 0,0.01 0,0.01 0,0.01 0,0.01 0,0.01 0,0.01 0,0.01 0,0 0,0.01 0,0.01 0,0.01 0,0 0,0.01 0,0.01 0,0.01 -0.01,0.01 0,0.01 0,0.01 -0.01,0.01 0,0 0,0.01 -0.01,0.01 -0.01,0 0,0.01 -0.01,0 -0.01,0 -0.01,0.01 0,0 -0.01,0 0,0 -0.01,0 0,0 -0.01,0 -0.01,0.01 0,0 -0.01,0 -0.01,0 0,0 -0.01,0 -0.01,0 -0.01,0 -0.01,0 -0.01,0 0,0 -0.01,0 -0.01,0 -0.01,0 -0.01,0 c -0.62,-0.64 -1.5,-0.64 -1.82,-0.64 v -0.31 c 0.2,0 0.79,0 1.31,0.26 v -5.16 c 0,-0.36 -0.03,-0.48 -0.93,-0.48 h -0.32 v -0.31 c 0.35,0.04 1.22,0.04 1.61,0.04 0.4,0 1.27,0 1.62,-0.04 v 0.31 h -0.32 c -0.9,0 -0.93,0.11 -0.93,0.48 z"
   style="fill:#000000;stroke-width:0" />
<path
   id="path9740"
   d="m 325.95,660.18 v 0.24 c 0,2.52 1.24,2.88 1.75,2.88 0.23,0 0.65,-0.06 0.87,-0.4 -0.15,0 -0.55,0 -0.55,-0.45 0,-0.31 0.24,-0.46 0.46,-0.46 0.16,0 0.46,0.09 0.46,0.48 0,0.6 -0.44,1.07 -1.26,1.07 -1.28,0 -2.62,-1.28 -2.62,-3.48 0,-2.66 1.15,-3.37 2.08,-3.37 1.1,0 2.05,0.94 2.05,2.25 0,1.27 -0.89,2.22 -1.99,2.22 l -0.01,-0.23 c 0.16,0 0.62,0 0.92,-0.61 0.18,-0.37 0.18,-0.88 0.18,-1.37 0,-0.48 0,-0.97 -0.17,-1.33 -0.29,-0.6 -0.75,-0.65 -0.98,-0.65 h 0 c -0.63,0 -0.93,0.6 -0.99,0.75 -0.18,0.46 -0.18,1.26 -0.18,1.44 0,0.78 0.32,1.77 1.22,1.77 l 0.01,0.23 c -0.68,0 -1.05,-0.5 -1.25,-0.98 z"
   style="fill:#000000;stroke-width:0" />
<path
   id="path9742"
   d="m 344.05,658.91 0,0.11 -0.01,0.11 -0.01,0.11 -0.02,0.11 -0.02,0.1 -0.02,0.1 -0.03,0.1 -0.03,0.1 -0.04,0.1 -0.04,0.09 -0.05,0.09 -0.04,0.09 -0.06,0.09 -0.05,0.08 -0.06,0.08 -0.06,0.08 -0.07,0.07 -0.07,0.07 -0.07,0.06 -0.07,0.07 -0.08,0.05 -0.08,0.06 -0.08,0.05 -0.08,0.04 -0.09,0.04 -0.09,0.03 -0.09,0.03 -0.09,0.03 -0.1,0.02 -0.09,0.01 -0.1,0.01 -0.1,0 c -0.48,0 -0.91,-0.16 -1.27,-0.5 v 1.94 c 0.2,-0.06 0.53,-0.13 0.85,-0.13 1.22,0 1.92,0.91 1.92,1.03 0,0.06 -0.03,0.11 -0.1,0.11 -0.01,0 -0.03,0 -0.08,-0.02 -0.2,-0.09 -0.68,-0.29 -1.35,-0.29 -0.4,0 -0.86,0.07 -1.33,0.28 -0.08,0.02 -0.1,0.02 -0.12,0.02 -0.1,0 -0.1,-0.07 -0.1,-0.23 v -2.95 c 0,-0.18 0,-0.26 0.14,-0.26 0.07,0 0.09,0.03 0.13,0.09 0.11,0.16 0.48,0.7 1.29,0.7 0.52,0 0.76,-0.46 0.84,-0.64 0.16,-0.37 0.18,-0.76 0.18,-1.26 0,-0.35 0,-0.94 -0.24,-1.36 -0.23,-0.39 -0.6,-0.65 -1.06,-0.65 -0.73,0 -1.3,0.53 -1.47,1.12 0.03,-0.01 0.06,-0.02 0.17,-0.02 0.33,0 0.5,0.25 0.5,0.48 0,0.24 -0.17,0.49 -0.5,0.49 -0.14,0 -0.48,-0.07 -0.48,-0.53 0,-0.85 0.68,-1.82 1.8,-1.82 1.16,0 2.17,0.96 2.17,2.22 z"
   style="fill:#000000;stroke-width:0" />
<path
   id="path9744"
   d="m 354.8,658.55 h 2.65 v -0.86 c 0,-0.36 -0.02,-0.47 -0.75,-0.47 h -0.21 v -0.31 c 0.41,0.03 0.92,0.03 1.34,0.03 0.42,0 0.95,0 1.36,-0.03 v 0.31 h -0.21 c -0.74,0 -0.76,0.11 -0.76,0.47 v 0.86 h 1 v 0.31 h -1 v 4.54 c 0,0.19 0,0.26 -0.16,0.26 -0.09,0 -0.12,0 -0.2,-0.13 l -3.06,-4.67 h 0.28 l 2.43,3.72 v -3.72 h -2.43 -0.28 z"
   style="fill:#000000;stroke-width:0" />
<path
   id="path9746"
   d="m 328.29,648.12 v -0.32 c 0,-2.33 -1.03,-2.78 -1.61,-2.78 -0.17,0 -0.71,0.01 -0.98,0.35 0.44,0 0.52,0.29 0.52,0.46 0,0.31 -0.24,0.46 -0.46,0.46 -0.16,0 -0.46,-0.09 -0.46,-0.48 0,-0.67 0.54,-1.07 1.39,-1.07 1.29,0 2.5,1.35 2.5,3.49 0,2.68 -1.14,3.36 -2.03,3.36 -0.55,0 -1.04,-0.18 -1.47,-0.63 -0.4,-0.45 -0.63,-0.86 -0.63,-1.61 0,-1.25 0.87,-2.22 1.99,-2.22 l 0.01,0.23 c -0.16,0 -0.62,0 -0.93,0.62 -0.18,0.37 -0.18,0.87 -0.18,1.36 0,0.54 0,1 0.21,1.37 0.27,0.5 0.65,0.63 1,0.63 0.46,0 0.79,-0.34 0.95,-0.79 0.12,-0.32 0.16,-0.94 0.16,-1.4 0,-0.83 -0.34,-1.79 -1.21,-1.79 h 0 l -0.01,-0.23 c 0.61,0 1.02,0.41 1.24,0.99 z"
   style="fill:#000000;stroke-width:0" />
<path
   id="path9748"
   d="m 342.66,648.56 0.06,0.04 0.07,0.03 0.06,0.04 0.06,0.04 0.06,0.03 0.06,0.04 0.06,0.04 0.06,0.05 0.05,0.04 0.05,0.04 0.05,0.04 0.05,0.05 0.05,0.04 0.04,0.05 0.05,0.05 0.04,0.05 0.04,0.04 0.03,0.05 0.04,0.05 0.03,0.06 0.03,0.05 0.03,0.05 0.02,0.05 0.02,0.06 0.02,0.05 0.02,0.06 0.02,0.06 0.01,0.06 0.01,0.05 0.01,0.06 0,0.06 0,0.07 c 0,0.91 -0.88,1.48 -1.79,1.48 l -0.01,-0.25 c 0.73,0 1.36,-0.52 1.36,-1.23 0,-0.57 -0.38,-1.05 -0.98,-1.4 l -1.24,0.8 c -0.46,0.3 -0.5,0.64 -0.5,0.81 0,0.6 0.65,1.02 1.36,1.02 l 0.01,0.25 c -1,0 -1.8,-0.74 -1.8,-1.66 0,-0.18 0.02,-0.63 0.43,-1.1 0.11,-0.12 0.48,-0.37 0.73,-0.54 l 0.23,-0.15 c 0.28,-0.17 0.75,-0.47 1.23,-0.77 0.27,-0.19 0.74,-0.49 0.74,-1.1 0,-0.74 -0.74,-1.25 -1.56,-1.25 -0.86,0 -1.58,0.61 -1.58,1.44 0,0.58 0.32,1.21 1.17,1.68 h 0 l -0.23,0.15 C 340.85,648 340,647.45 340,646.46 c 0,-1.06 1.01,-1.72 2.06,-1.72 1.12,0 2.07,0.82 2.07,1.89 0,0.36 -0.11,0.81 -0.49,1.22 -0.19,0.21 -0.35,0.31 -0.98,0.71 z"
   style="fill:#000000;stroke-width:0" />
<path
   id="path9750"
   d="m 359.27,651.02 0.01,0.01 0,0.01 0.01,0.01 0.01,0.01 0,0.01 0.01,0.01 0,0.01 0.01,0.01 0,0.01 0.01,0 0,0.01 0.01,0.01 0,0.01 0,0.01 0,0 0.01,0.01 0,0.01 0,0.01 0,0.01 0,0.01 0,0.01 0,0.01 0,0.01 0.01,0.02 0,0.01 0,0.01 0,0.02 0,0.01 0,0.02 0,0.01 0,0.02 0,0.01 0,0.01 h -2.42 c -1.22,0 -1.24,0.13 -1.28,0.32 h -0.25 l -0.33,-2.05 h 0.25 c 0.03,0.16 0.12,0.78 0.25,0.9 0.07,0.06 0.85,0.06 0.98,0.06 h 2.06 c -0.11,-0.16 -0.9,-1.24 -1.12,-1.57 -0.89,-1.35 -1.22,-2.73 -1.22,-3.75 0,-0.1 0,-0.54 0.46,-0.54 0.46,0 0.46,0.44 0.46,0.54 v 0.51 c 0,0.55 0.03,1.1 0.1,1.64 0.04,0.23 0.18,1.08 0.62,1.7 z"
   style="fill:#000000;stroke-width:0" />
<polygon
   id="polygon9752"
   points="362.89,677.23 359.58,677.23 359.58,676.54 362.2,676.54 362.2,659.3 362.89,659.3 "
   style="fill:#000000;stroke-width:0" />
<polygon
   id="polygon9754"
   points="359.58,641.38 362.89,641.38 362.89,659.3 362.2,659.3 362.2,642.07 359.58,642.07 "
   style="fill:#000000;stroke-width:0" />
</g>  <rect
     style="fill:none;stroke:#000000;stroke-width:4;stroke-linecap:round;stroke-miterlimit:4;stroke-opacity:1;stroke-dasharray:none"
     id="rect2877"
     width="440"
     height="170"
     x="120"
     y="10" />
  <rect
     style="fill:none;stroke:#000000;stroke-width:4;stroke-linecap:round;stroke-miterlimit:4;stroke-opacity:1;stroke-dasharray:none"
     id="rect2877-7"
     width="440"
     height="190"
     x="120"
     y="200" />
  <rect
     style="fill:none;stroke:#000000;stroke-width:4;stroke-linecap:round;stroke-miterlimit:4;stroke-opacity:1;stroke-dasharray:none"
     id="rect2877-7-6"
     width="190"
     height="190"
     x="600"
     y="200" />
  <path
     style="fill:none;stroke:#000000;stroke-width:4;stroke-miterlimit:4;stroke-opacity:1;stroke-dasharray:none"
     d="m 570,220 20,20 -20,20"
     id="path2927" />
</svg>
